<svg width="40" height="40" viewBox="0 0 40 40" fill="none" xmlns="http://www.w3.org/2000/svg">
<path d="M31.6667 21.6667L30.57 20.57C29.9665 19.9662 29.1543 19.6171 28.3009 19.5944C27.4476 19.5718 26.618 19.8774 25.9833 20.4483L21.655 24.3433C21.134 24.8122 20.7175 25.3854 20.4324 26.0257C20.1473 26.666 20 27.3591 20 28.06V35H24.4783C25.1685 34.9999 25.8511 34.857 26.4833 34.5802C27.1155 34.3034 27.6835 33.8987 28.1517 33.3917L35.34 25.6033C36.1929 24.6798 36.6665 23.4688 36.6667 22.2117V10H35C34.1159 10 33.2681 10.3512 32.643 10.9763C32.0179 11.6014 31.6667 12.4493 31.6667 13.3333V21.6667ZM31.6667 21.6667L26.6667 26.6667" stroke="white" stroke-width="2.5" stroke-linecap="round" stroke-linejoin="round"/>
<path d="M8.33337 21.6667L9.43004 20.57C10.0336 19.9662 10.8457 19.6171 11.6991 19.5944C12.5525 19.5718 13.382 19.8774 14.0167 20.4483L18.345 24.3433C18.866 24.8122 19.2825 25.3854 19.5677 26.0257C19.8528 26.666 20.0001 27.3591 20 28.06V35H15.5217C14.8316 34.9999 14.1489 34.857 13.5167 34.5802C12.8846 34.3034 12.3165 33.8987 11.8484 33.3917L4.66004 25.6033C3.80717 24.6798 3.33349 23.4688 3.33337 22.2117V10H5.00004C5.8841 10 6.73194 10.3512 7.35706 10.9763C7.98218 11.6014 8.33337 12.4493 8.33337 13.3333V21.6667ZM8.33337 21.6667L13.3334 26.6667M25 12.39C24.5781 13.0897 24.0024 13.6841 23.3166 14.1283C22.6308 14.5725 21.8529 14.8548 21.0419 14.9537C20.2308 15.0526 19.4079 14.9656 18.6354 14.6993C17.863 14.4329 17.1613 13.9943 16.5835 13.4165C16.0058 12.8388 15.5671 12.1371 15.3008 11.3646C15.0344 10.5922 14.9474 9.76925 15.0464 8.95819C15.1453 8.14712 15.4275 7.36922 15.8717 6.68343C16.3159 5.99764 16.9104 5.42195 17.61 5M23.3334 6.66667H23.3484" stroke="white" stroke-width="2.5" stroke-linecap="round" stroke-linejoin="round"/>
</svg>
