<svg width="20" height="19" viewBox="0 0 20 19" fill="none" xmlns="http://www.w3.org/2000/svg">
<path fill-rule="evenodd" clip-rule="evenodd" d="M0 2.77461C0 2.29722 0.263392 1.83938 0.732233 1.50182C1.20107 1.16425 1.83696 0.974609 2.5 0.974609H17.5C18.163 0.974609 18.7989 1.16425 19.2678 1.50182C19.7366 1.83938 20 2.29722 20 2.77461V17.1746C20 17.652 19.7366 18.1098 19.2678 18.4474C18.7989 18.785 18.163 18.9746 17.5 18.9746H2.5C1.83696 18.9746 1.20107 18.785 0.732233 18.4474C0.263392 18.1098 0 17.652 0 17.1746V2.77461ZM17.5 2.77461H2.5V17.1746H17.5V2.77461ZM9.435 5.26131C9.66934 5.43008 9.80098 5.65896 9.80098 5.89761C9.80098 6.13626 9.66934 6.36513 9.435 6.53391L7.00375 8.28261C6.71076 8.49338 6.31354 8.61177 5.89937 8.61177C5.48521 8.61177 5.08799 8.49338 4.795 8.28261L3.69 7.48701C3.57061 7.40399 3.47538 7.30468 3.40987 7.19487C3.34436 7.08507 3.30988 6.96697 3.30844 6.84747C3.30699 6.72797 3.33862 6.60946 3.40147 6.49885C3.46432 6.38824 3.55714 6.28776 3.67451 6.20325C3.79187 6.11875 3.93144 6.05192 4.08506 6.00667C4.23868 5.96142 4.40328 5.93865 4.56925 5.93968C4.73523 5.94072 4.89925 5.96555 5.05176 6.01272C5.20426 6.05989 5.34219 6.12845 5.4575 6.21441L5.9 6.53301L7.6675 5.26041C7.90191 5.09169 8.21979 4.9969 8.55125 4.9969C8.8827 4.9969 9.20059 5.09259 9.435 5.26131ZM11.25 7.27461C11.25 7.03591 11.3817 6.807 11.6161 6.63821C11.8505 6.46943 12.1685 6.37461 12.5 6.37461H15C15.3315 6.37461 15.6495 6.46943 15.8839 6.63821C16.1183 6.807 16.25 7.03591 16.25 7.27461C16.25 7.5133 16.1183 7.74222 15.8839 7.91101C15.6495 8.07979 15.3315 8.17461 15 8.17461H12.5C12.1685 8.17461 11.8505 8.07979 11.6161 7.91101C11.3817 7.74222 11.25 7.5133 11.25 7.27461ZM3.75 11.3246C3.75 10.9666 3.94754 10.6232 4.29917 10.37C4.65081 10.1168 5.12772 9.97461 5.625 9.97461H8.125C8.62228 9.97461 9.09919 10.1168 9.45083 10.37C9.80246 10.6232 10 10.9666 10 11.3246V13.1246C10 13.4827 9.80246 13.826 9.45083 14.0792C9.09919 14.3324 8.62228 14.4746 8.125 14.4746H5.625C5.12772 14.4746 4.65081 14.3324 4.29917 14.0792C3.94754 13.826 3.75 13.4827 3.75 13.1246V11.3246ZM6.25 11.7746V12.6746H7.5V11.7746H6.25ZM11.25 12.2246C11.25 11.9859 11.3817 11.757 11.6161 11.5882C11.8505 11.4194 12.1685 11.3246 12.5 11.3246H15C15.3315 11.3246 15.6495 11.4194 15.8839 11.5882C16.1183 11.757 16.25 11.9859 16.25 12.2246C16.25 12.4633 16.1183 12.6922 15.8839 12.861C15.6495 13.0298 15.3315 13.1246 15 13.1246H12.5C12.1685 13.1246 11.8505 13.0298 11.6161 12.861C11.3817 12.6922 11.25 12.4633 11.25 12.2246Z" fill="white"/>
</svg>
