<svg width="19" height="20" viewBox="0 0 19 20" fill="none" xmlns="http://www.w3.org/2000/svg">
<path d="M9.45207 6.33398C8.72687 6.33398 8.01796 6.54903 7.41498 6.95193C6.812 7.35483 6.34203 7.92748 6.06451 8.59748C5.78699 9.26747 5.71438 10.0047 5.85586 10.716C5.99734 11.4272 6.34655 12.0806 6.85934 12.5934C7.37214 13.1062 8.02547 13.4554 8.73674 13.5969C9.448 13.7383 10.1852 13.6657 10.8552 13.3882C11.5252 13.1107 12.0979 12.6407 12.5008 12.0377C12.9037 11.4348 13.1187 10.7258 13.1187 10.0007C13.1176 9.02853 12.731 8.09654 12.0436 7.40914C11.3562 6.72175 10.4242 6.33509 9.45207 6.33398ZM9.45207 12.334C8.99058 12.334 8.53945 12.1971 8.15574 11.9407C7.77202 11.6844 7.47295 11.3199 7.29635 10.8936C7.11975 10.4672 7.07354 9.99806 7.16357 9.54544C7.2536 9.09282 7.47583 8.67706 7.80215 8.35073C8.12848 8.02441 8.54423 7.80218 8.99686 7.71215C9.44948 7.62212 9.91863 7.66833 10.345 7.84493C10.7714 8.02154 11.1358 8.32061 11.3922 8.70432C11.6486 9.08803 11.7854 9.53916 11.7854 10.0007C11.7847 10.6193 11.5387 11.2124 11.1012 11.6498C10.6638 12.0872 10.0707 12.3333 9.45207 12.334Z" fill="white"/>
<path d="M18.6001 12.7633L17.2763 11.6736C17.511 10.5702 17.511 9.4298 17.2763 8.32642L18.6001 7.23671C18.7528 7.11162 18.8559 6.93626 18.8911 6.74204C18.9262 6.54783 18.8911 6.34743 18.792 6.17675L17.4332 3.82329C17.3349 3.65206 17.1789 3.5214 16.9931 3.45474C16.8073 3.38809 16.6038 3.38979 16.4191 3.45954L14.8124 4.0615C13.9754 3.30528 12.988 2.73458 11.9149 2.38684L11.633 0.696378C11.6011 0.501558 11.5008 0.324474 11.3502 0.196865C11.1996 0.0692564 11.0084 -0.000534032 10.811 3.07723e-06H8.09342C7.89602 -0.000527197 7.70487 0.0692604 7.55424 0.196859C7.40362 0.324458 7.30335 0.501528 7.27142 0.696336L6.98967 2.38684C5.91659 2.73457 4.92916 3.30528 4.09217 4.0615L2.4853 3.45946C2.30063 3.38975 2.09717 3.38808 1.91138 3.45474C1.72559 3.5214 1.56961 3.65204 1.47138 3.82325L0.112592 6.17688C0.0134927 6.34757 -0.0216017 6.54797 0.0135944 6.74218C0.0487904 6.93639 0.151978 7.11173 0.304675 7.23679L1.6283 8.32642C1.39363 9.4298 1.39363 10.5702 1.6283 11.6736L0.30455 12.7633C0.151877 12.8884 0.0487179 13.0637 0.0135455 13.2579C-0.021627 13.4522 0.0134843 13.6526 0.112592 13.8232L1.47143 16.1767C1.56966 16.3479 1.72567 16.4786 1.91149 16.5452C2.0973 16.6119 2.30079 16.6102 2.48547 16.5405L4.09222 15.9385C4.9292 16.6947 5.91663 17.2654 6.98971 17.6132L7.27146 19.3036C7.30339 19.4984 7.40364 19.6755 7.55426 19.8031C7.70488 19.9307 7.89602 20.0005 8.09342 20H10.811C11.0084 20.0005 11.1996 19.9307 11.3502 19.8032C11.5008 19.6756 11.6011 19.4985 11.633 19.3037L11.9148 17.6132C12.9879 17.2654 13.9753 16.6947 14.8123 15.9385L16.4191 16.5405C16.6038 16.6102 16.8073 16.6119 16.993 16.5452C17.1788 16.4786 17.3348 16.348 17.433 16.1767L18.7918 13.8231C18.8909 13.6525 18.926 13.4521 18.8909 13.2579C18.8558 13.0637 18.7527 12.8884 18.6001 12.7633ZM16.4903 15.1433L14.4857 14.3923L14.1822 14.6979C13.347 15.5396 12.3024 16.1434 11.1561 16.4467L10.7395 16.5566L10.3876 18.6667H8.51717L8.16542 16.5566L7.74876 16.4467C6.60246 16.1434 5.55786 15.5396 4.72272 14.6979L4.41917 14.3923L2.4143 15.1433L1.47926 13.5234L3.13047 12.1641L3.01797 11.7485C2.70858 10.6034 2.70858 9.39662 3.01797 8.25146L3.13047 7.83596L1.47926 6.47663L2.41451 4.85671L4.41905 5.60771L4.72259 5.30213C5.55774 4.46036 6.60234 3.85664 7.74863 3.55325L8.1653 3.44342L8.51701 1.33334H10.3876L10.7393 3.44342L11.156 3.55325C12.3023 3.85664 13.3469 4.46036 14.182 5.30213L14.4856 5.60771L16.4901 4.85671L17.4254 6.47658L15.7742 7.83596L15.8867 8.25146C16.1961 9.39662 16.1961 10.6034 15.8867 11.7485L15.7742 12.1641L17.4254 13.5234L16.4903 15.1433Z" fill="white"/>
</svg>
