<svg width="24" height="25" viewBox="0 0 24 25" fill="none" xmlns="http://www.w3.org/2000/svg">
<path d="M4.00024 19.9746V17.9746H6.00024V10.9746C6.00024 9.59128 6.41691 8.36228 7.25024 7.28761C8.08358 6.21295 9.16691 5.50861 10.5002 5.17461V4.47461C10.5002 4.05795 10.6462 3.70394 10.9382 3.41261C11.2302 3.12128 11.5842 2.97528 12.0002 2.97461C12.4162 2.97394 12.7706 3.11994 13.0632 3.41261C13.3559 3.70528 13.5016 4.05928 13.5002 4.47461V5.17461C14.8336 5.50794 15.9169 6.21228 16.7502 7.28761C17.5836 8.36295 18.0002 9.59194 18.0002 10.9746V17.9746H20.0002V19.9746H4.00024ZM12.0002 22.9746C11.4502 22.9746 10.9796 22.7789 10.5882 22.3876C10.1969 21.9963 10.0009 21.5253 10.0002 20.9746H14.0002C14.0002 21.5246 13.8046 21.9956 13.4132 22.3876C13.0219 22.7796 12.5509 22.9753 12.0002 22.9746ZM8.00024 17.9746H16.0002V10.9746C16.0002 9.87461 15.6086 8.93295 14.8252 8.14961C14.0419 7.36628 13.1002 6.97461 12.0002 6.97461C10.9002 6.97461 9.95858 7.36628 9.17524 8.14961C8.39191 8.93295 8.00024 9.87461 8.00024 10.9746V17.9746Z" fill="white"/>
</svg>
