<svg width="40" height="40" viewBox="0 0 40 40" fill="none" xmlns="http://www.w3.org/2000/svg">
<path d="M5.75 16.6673C5.75 13.5036 5.75159 11.2061 5.98747 9.45229C6.22045 7.72005 6.66953 6.63109 7.48344 5.81787C8.29767 5.00434 9.38702 4.55524 11.119 4.32207C12.8726 4.08599 15.1697 4.08398 18.3333 4.08398H21.6667C24.8304 4.08398 27.1279 4.08558 28.8817 4.32146C30.6139 4.55444 31.7029 5.00352 32.5161 5.81742C33.3296 6.63165 33.7787 7.72101 34.0119 9.45301C34.248 11.2066 34.25 13.5037 34.25 16.6673V23.334C34.25 26.4977 34.2484 28.7952 34.0125 30.549C33.7795 32.2812 33.3305 33.3702 32.5166 34.1834C31.7023 34.997 30.613 35.4461 28.881 35.6792C27.1274 35.9153 24.8303 35.9173 21.6667 35.9173H18.3333C15.1696 35.9173 12.8721 35.9157 11.1183 35.6798C9.38607 35.4469 8.2971 34.9978 7.48389 34.1839C6.67035 33.3696 6.22126 32.2803 5.98809 30.5483C5.75201 28.7947 5.75 26.4976 5.75 23.334V16.6673ZM10.2027 15.204C9.67373 15.7322 9.45121 16.3943 9.34838 17.1578C9.24995 17.8886 9.24997 18.8143 9.25 19.9469L9.25 20.0007V26.6673L9.25 26.7211C9.24997 27.8545 9.24995 28.7806 9.34838 29.5114C9.45115 30.2745 9.67352 30.9362 10.2024 31.4637C10.7308 31.9933 11.3932 32.216 12.1572 32.3189C12.888 32.4174 13.8136 32.4173 14.9462 32.4173H15H25H25.0538C26.1864 32.4173 27.112 32.4174 27.8428 32.3189C28.6065 32.2161 29.2687 31.9935 29.797 31.4643C30.3262 30.936 30.5488 30.2738 30.6516 29.5101C30.75 28.7793 30.75 27.8537 30.75 26.7211V26.6673V20.0007V19.9469C30.75 18.8143 30.75 17.8886 30.6516 17.1578C30.5488 16.3941 30.3262 15.732 29.797 15.2037C29.2687 14.6745 28.6065 14.4519 27.8428 14.349C27.112 14.2506 26.1864 14.2506 25.0538 14.2507H25H15H14.9462C13.8128 14.2506 12.8867 14.2506 12.1559 14.349C11.3924 14.4519 10.7303 14.6744 10.2027 15.204ZM11.6667 8.00065C11.1362 8.00065 10.6275 8.21136 10.2525 8.58644C9.87738 8.96151 9.66667 9.47022 9.66667 10.0007C9.66667 10.5311 9.87738 11.0398 10.2525 11.4149C10.6275 11.7899 11.1362 12.0007 11.6667 12.0007H20C20.5304 12.0007 21.0391 11.7899 21.4142 11.4149C21.7893 11.0398 22 10.5311 22 10.0007C22 9.47022 21.7893 8.96151 21.4142 8.58644C21.0391 8.21136 20.5304 8.00065 20 8.00065H11.6667Z" stroke="white" stroke-width="1.5"/>
<path fill-rule="evenodd" clip-rule="evenodd" d="M26.2856 22.8568C26.2856 26.0128 23.7274 28.5711 20.5714 28.5711C19.9251 28.5718 19.2834 28.4628 18.6736 28.2488C18.417 27.6261 18.2852 26.959 18.2856 26.2854C18.2841 25.066 18.7172 23.8861 19.5074 22.9574C19.8486 23.455 20.3059 23.862 20.8398 24.1432C21.3737 24.4243 21.968 24.5712 22.5714 24.5711C23.2114 24.5712 23.8406 24.4059 24.398 24.0912C24.9554 23.7765 25.4219 23.3232 25.7525 22.7751C25.8896 22.5488 26.2856 22.5922 26.2856 22.8568Z" fill="white"/>
<path d="M14.8571 22.8569C14.8571 25.3477 16.4508 27.466 18.6736 28.2483C18.417 27.6257 18.2852 26.9588 18.2856 26.2854C18.2856 25.0163 18.7456 23.8546 19.5073 22.9574C19.0826 22.3394 18.8558 21.6068 18.8571 20.8569C18.857 20.2168 19.0223 19.5876 19.3369 19.0302C19.6516 18.4729 20.105 18.0063 20.6531 17.6757C20.8799 17.5386 20.8359 17.1426 20.5713 17.1426C17.4153 17.1426 14.8571 19.7009 14.8571 22.8569Z" fill="white"/>
</svg>
